<svg width="840" height="227" viewBox="0 0 840 227" fill="none" xmlns="http://www.w3.org/2000/svg">
<path d="M467.907 179.705C463.762 185.604 458.262 189.988 451.406 192.858C444.55 195.569 436.897 196.924 428.447 196.924C421.751 196.924 415.613 196.127 410.032 194.532C404.612 192.938 399.829 190.546 395.683 187.358C391.538 184.01 388.27 179.944 385.878 175.161C383.486 170.219 382.291 164.638 382.291 158.42C382.291 151.565 383.646 145.745 386.356 140.962C389.067 136.02 392.734 132.034 397.357 129.004C402.14 125.975 407.721 123.743 414.098 122.308C420.475 120.714 427.172 119.917 434.187 119.917H466.473C466.473 110.669 464.4 103.495 460.255 98.3929C456.109 93.291 448.855 90.6603 438.492 90.5008C432.433 90.5008 427.172 91.5372 422.708 93.6098C418.403 95.6825 415.533 99.1104 414.098 103.893H386.117C387.074 97.1971 389.226 91.5372 392.574 86.9135C396.082 82.2899 400.227 78.4635 405.01 75.4342C409.953 72.4049 415.374 70.2525 421.273 68.9771C427.331 67.7016 433.39 67.0638 439.448 67.0638C447.261 67.0638 454.515 68.1002 461.211 70.1728C467.907 72.2455 473.727 75.7531 478.669 80.6955C484.25 86.4352 487.996 93.2909 489.91 101.263C491.823 109.234 492.779 117.924 492.779 127.33V195.25H469.103L467.907 179.705ZM466.473 139.288H440.166C435.542 139.288 430.918 139.687 426.295 140.484C421.671 141.122 417.685 142.796 414.337 145.506C411.148 148.057 409.554 151.804 409.554 156.746C409.554 162.805 411.707 167.428 416.011 170.617C420.475 173.646 425.896 175.161 432.274 175.161C437.216 175.161 441.76 174.523 445.905 173.248C450.21 171.972 453.877 169.9 456.906 167.03C459.936 164.001 462.247 160.254 463.842 155.79C465.596 151.166 466.473 145.665 466.473 139.288Z" fill="#0B101B"/>
<path d="M537.598 16.8417C542.541 16.8417 546.606 18.3563 549.795 21.3856C553.143 24.4149 554.817 28.5602 554.817 33.8216C554.817 38.9235 553.143 42.9891 549.795 46.0184C546.606 49.0476 542.541 50.5623 537.598 50.5623C532.337 50.5623 528.112 49.0476 524.923 46.0184C521.734 42.9891 520.14 38.9235 520.14 33.8216C520.14 28.5602 521.734 24.4149 524.923 21.3856C528.112 18.3563 532.337 16.8417 537.598 16.8417ZM523.727 195.25V69.2162H550.991V195.25H523.727Z" fill="#0B101B"/>
<path d="M767.673 67.0638C777.717 67.0638 786.566 68.6582 794.219 71.8469C801.872 75.0356 808.329 79.4998 813.59 85.2395C819.011 90.8197 823.076 97.5957 825.787 105.567C828.497 113.539 829.852 122.388 829.852 132.113C829.852 141.998 828.497 150.927 825.787 158.899C823.236 166.711 819.33 173.487 814.068 179.227C808.807 184.966 802.27 189.351 794.458 192.38C786.805 195.409 777.876 196.924 767.673 196.924C757.628 196.924 748.779 195.409 741.127 192.38C733.474 189.191 727.017 184.807 721.755 179.227C716.653 173.487 712.747 166.631 710.037 158.659C707.486 150.688 706.21 141.839 706.21 132.113C706.21 122.388 707.486 113.539 710.037 105.567C712.747 97.5957 716.733 90.8197 721.994 85.2395C727.256 79.4998 733.713 75.0356 741.366 71.8469C749.019 68.6582 757.788 67.0638 767.673 67.0638ZM767.673 173.248C773.891 173.248 779.152 172.211 783.457 170.139C787.921 167.907 791.508 164.957 794.219 161.29C797.088 157.623 799.161 153.318 800.437 148.376C801.871 143.433 802.589 138.092 802.589 132.353C802.589 126.613 801.871 121.272 800.437 116.329C799.161 111.227 797.088 106.843 794.219 103.176C791.508 99.5089 787.921 96.6391 783.457 94.5664C779.152 92.4938 773.891 91.4574 767.673 91.4574C761.614 91.4574 756.432 92.4938 752.128 94.5664C747.823 96.6391 744.236 99.5089 741.366 103.176C738.496 106.843 736.344 111.227 734.909 116.329C733.633 121.272 732.995 126.613 732.995 132.353C732.995 138.092 733.633 143.433 734.909 148.376C736.344 153.318 738.416 157.623 741.127 161.29C743.996 164.957 747.584 167.907 751.889 170.139C756.353 172.211 761.614 173.248 767.673 173.248Z" fill="#0B101B"/>
<path d="M629.176 120.634H609.566V31.1693H582.542V195.25H609.566V144.31H630.851L664.093 195.25H695.661L652.613 129.244L692.313 69.2162H661.701L629.176 120.634Z" fill="#0B101B"/>
<path d="M363.856 68.8581H331.574V31.1693H323.232L284 84.4717V91.3644H304.146V153.744C304.146 168.469 307.463 179.068 314.098 185.541C320.894 192.013 332.14 195.25 347.836 195.25H362.885V171.463H350.263C342.982 171.463 338.046 169.683 335.457 166.123C332.868 162.563 331.574 157.142 331.574 149.861V91.3644H363.856V68.8581Z" fill="#0B101B"/>
<path d="M248.256 183.346L204.803 124.309C200.082 117.893 193.092 114.05 185.648 113.203C183.954 113.006 182.441 112.023 181.593 110.54C180.731 109.057 180.64 107.257 181.321 105.683C184.302 98.8144 184.483 90.8408 181.276 83.5481L151.878 16.401C147.521 6.43027 137.671 0 126.792 0C115.914 0 106.064 6.4454 101.707 16.401L72.3091 83.5481C69.1166 90.8408 69.2831 98.8144 72.2637 105.683C72.9445 107.257 72.8386 109.057 71.9913 110.54C71.1289 112.023 69.631 113.006 67.9364 113.203C60.4925 114.05 53.5024 117.893 48.7819 124.309L5.32833 183.346C-1.11707 192.106 -1.76767 203.847 3.66402 213.273C9.11084 222.684 19.6111 227.995 30.4139 226.8L103.265 218.69C111.178 217.812 118.002 213.682 122.45 207.66C123.464 206.283 125.083 205.466 126.792 205.466C128.502 205.466 130.106 206.283 131.135 207.66C135.583 213.682 142.407 217.812 150.32 218.69L223.171 226.8C233.974 228.01 244.474 222.699 249.921 213.273C255.352 203.847 254.702 192.106 248.256 183.346ZM91.3124 91.9756L120.755 24.7528C121.815 22.3471 124.19 20.7887 126.807 20.7887C129.425 20.7887 131.8 22.3471 132.86 24.7528L162.303 91.9756C163.226 94.0938 163.029 96.5448 161.758 98.4815C160.487 100.418 158.339 101.583 156.009 101.583H97.5914C95.2765 101.583 93.1129 100.418 91.842 98.4815C90.571 96.5448 90.3743 94.0938 91.2972 91.9756H91.3124ZM106.427 194.315C105.383 196.388 103.356 197.78 101.056 198.037L28.1293 206.147C25.5269 206.434 22.9851 205.164 21.6688 202.894C20.3524 200.624 20.5189 197.795 22.0773 195.677L65.5762 136.579C66.953 134.718 69.162 133.659 71.4769 133.795C73.7918 133.916 75.8797 135.202 77.0448 137.214L77.0902 137.29L106.216 187.734L106.261 187.809C107.426 189.822 107.486 192.273 106.442 194.33L106.427 194.315ZM132.784 171.499C131.543 173.632 129.274 174.964 126.792 174.964C124.326 174.964 122.042 173.648 120.801 171.514L98.4235 132.766C97.1829 130.633 97.1829 127.985 98.4235 125.852C99.6642 123.718 101.934 122.387 104.415 122.387H149.155C151.621 122.387 153.905 123.688 155.146 125.837C156.387 127.985 156.387 130.618 155.146 132.751L132.784 171.499ZM231.931 202.894C230.615 205.164 228.088 206.45 225.471 206.162L152.544 198.052C150.244 197.795 148.217 196.403 147.173 194.33C146.129 192.258 146.189 189.807 147.354 187.809L147.4 187.734L176.525 137.29L176.57 137.214C177.735 135.202 179.823 133.916 182.138 133.795C184.453 133.674 186.662 134.718 188.039 136.579L231.538 195.677C233.096 197.795 233.247 200.624 231.946 202.894H231.931Z" fill="#E81899"/>
</svg>
